<svg width="16" height="16" viewBox="0 0 16 16" fill="none" xmlns="http://www.w3.org/2000/svg">
<path d="M6.06398 14.1667V12.0693C6.064 11.555 6.24262 11.0566 6.56932 10.6593C4.56598 10.3927 3.04932 9.42 3.04932 6.794C3.04932 5.68333 4.00398 4.20067 4.00398 4.20067C3.66132 3.44733 3.67065 2.14467 4.04398 1.83333C4.04398 1.83333 5.34398 1.95 6.60865 3C7.83398 2.67 9.11798 2.63067 10.3826 3C11.6473 1.95 12.948 1.83333 12.948 1.83333C13.32 2.14467 13.33 3.448 12.988 4.20067C12.988 4.20067 13.9427 5.68333 13.9427 6.794C13.9427 9.42067 12.4253 10.3927 10.4226 10.6593C10.7491 11.0567 10.9275 11.5551 10.9273 12.0693V14.1667" stroke="#787777" stroke-linecap="round" stroke-linejoin="round"/>
<path d="M2.05737 11.0467C2.16604 11.416 2.36604 11.7573 2.64271 12.044C2.91871 12.3313 3.26404 12.5573 3.65137 12.7027C4.04129 12.849 4.4576 12.9118 4.87334 12.887C5.28907 12.8622 5.69496 12.7503 6.06471 12.5587" stroke="#787777" stroke-linecap="round" stroke-linejoin="round"/>
</svg>
