<svg width="16" height="16" viewBox="0 0 16 16" fill="none" xmlns="http://www.w3.org/2000/svg">
<path d="M8.00007 4.79531C6.22664 4.79531 4.79539 6.22656 4.79539 8C4.79539 9.77344 6.22664 11.2047 8.00007 11.2047C9.77351 11.2047 11.2048 9.77344 11.2048 8C11.2048 6.22656 9.77351 4.79531 8.00007 4.79531ZM8.00007 10.0828C6.8532 10.0828 5.91726 9.14687 5.91726 8C5.91726 6.85313 6.8532 5.91719 8.00007 5.91719C9.14695 5.91719 10.0829 6.85313 10.0829 8C10.0829 9.14687 9.14695 10.0828 8.00007 10.0828ZM11.336 3.91719C10.9219 3.91719 10.5876 4.25156 10.5876 4.66563C10.5876 5.07969 10.9219 5.41406 11.336 5.41406C11.7501 5.41406 12.0844 5.08125 12.0844 4.66563C12.0846 4.5673 12.0653 4.46992 12.0277 4.37906C11.9902 4.2882 11.935 4.20565 11.8655 4.13612C11.796 4.0666 11.7134 4.01148 11.6226 3.97391C11.5317 3.93634 11.4343 3.91706 11.336 3.91719ZM14.2469 8C14.2469 7.1375 14.2548 6.28281 14.2063 5.42188C14.1579 4.42188 13.9298 3.53437 13.1985 2.80313C12.4657 2.07031 11.5798 1.84375 10.5798 1.79531C9.71726 1.74688 8.86257 1.75469 8.00164 1.75469C7.13914 1.75469 6.28445 1.74688 5.42351 1.79531C4.42351 1.84375 3.53601 2.07188 2.80476 2.80313C2.07195 3.53594 1.84539 4.42188 1.79695 5.42188C1.74851 6.28438 1.75632 7.13906 1.75632 8C1.75632 8.86094 1.74851 9.71719 1.79695 10.5781C1.84539 11.5781 2.07351 12.4656 2.80476 13.1969C3.53757 13.9297 4.42351 14.1562 5.42351 14.2047C6.28601 14.2531 7.1407 14.2453 8.00164 14.2453C8.86414 14.2453 9.71882 14.2531 10.5798 14.2047C11.5798 14.1562 12.4673 13.9281 13.1985 13.1969C13.9313 12.4641 14.1579 11.5781 14.2063 10.5781C14.2563 9.71719 14.2469 8.8625 14.2469 8ZM12.8719 11.6844C12.7579 11.9688 12.6204 12.1812 12.4001 12.4C12.1798 12.6203 11.9688 12.7578 11.6844 12.8719C10.8626 13.1984 8.91101 13.125 8.00007 13.125C7.08914 13.125 5.13601 13.1984 4.31414 12.8734C4.02976 12.7594 3.81726 12.6219 3.59851 12.4016C3.3782 12.1813 3.2407 11.9703 3.12664 11.6859C2.80164 10.8625 2.87507 8.91094 2.87507 8C2.87507 7.08906 2.80164 5.13594 3.12664 4.31406C3.2407 4.02969 3.3782 3.81719 3.59851 3.59844C3.81882 3.37969 4.02976 3.24063 4.31414 3.12656C5.13601 2.80156 7.08914 2.875 8.00007 2.875C8.91101 2.875 10.8641 2.80156 11.686 3.12656C11.9704 3.24063 12.1829 3.37813 12.4016 3.59844C12.6219 3.81875 12.7594 4.02969 12.8735 4.31406C13.1985 5.13594 13.1251 7.08906 13.1251 8C13.1251 8.91094 13.1985 10.8625 12.8719 11.6844Z" fill="#787777"/>
</svg>
