<svg width="40" height="94" viewBox="0 0 40 94" fill="none" xmlns="http://www.w3.org/2000/svg">
<mask id="path-1-inside-1_327_147" fill="white">
<path d="M0 0H40V94H0V0Z"/>
</mask>
<path d="M0 94V94.5H1V94V93.5H0V94ZM3 94V94.5H5V94V93.5H3V94ZM7 94V94.5H9V94V93.5H7V94ZM11 94V94.5H13V94V93.5H11V94ZM15 94V94.5H17V94V93.5H15V94ZM19 94V94.5H21V94V93.5H19V94ZM23 94V94.5H25V94V93.5H23V94ZM27 94V94.5H29V94V93.5H27V94ZM31 94V94.5H33V94V93.5H31V94ZM35 94V94.5H37V94V93.5H35V94ZM39 94V94.5H40V94V93.5H39V94ZM40 0V-0.5H39V0V0.5H40V0ZM37 0V-0.5H35V0V0.5H37V0ZM33 0V-0.5H31V0V0.5H33V0ZM29 0V-0.5H27V0V0.5H29V0ZM25 0V-0.5H23V0V0.5H25V0ZM21 0V-0.5H19V0V0.5H21V0ZM17 0V-0.5H15V0V0.5H17V0ZM13 0V-0.5H11V0V0.5H13V0ZM9 0V-0.5H7V0V0.5H9V0ZM5 0V-0.5H3V0V0.5H5V0ZM0.999999 0V-0.5H0V0V0.5H0.999999V0ZM0 94V95H1V94V93H0V94ZM3 94V95H5V94V93H3V94ZM7 94V95H9V94V93H7V94ZM11 94V95H13V94V93H11V94ZM15 94V95H17V94V93H15V94ZM19 94V95H21V94V93H19V94ZM23 94V95H25V94V93H23V94ZM27 94V95H29V94V93H27V94ZM31 94V95H33V94V93H31V94ZM35 94V95H37V94V93H35V94ZM39 94V95H40V94V93H39V94ZM40 0V-1H39V0V1H40V0ZM37 0V-1H35V0V1H37V0ZM33 0V-1H31V0V1H33V0ZM29 0V-1H27V0V1H29V0ZM25 0V-1H23V0V1H25V0ZM21 0V-1H19V0V1H21V0ZM17 0V-1H15V0V1H17V0ZM13 0V-1H11V0V1H13V0ZM9 0V-1H7V0V1H9V0ZM5 0V-1H3V0V1H5V0ZM0.999999 0V-1H0V0V1H0.999999V0Z" fill="url(#paint0_linear_327_147)" mask="url(#path-1-inside-1_327_147)"/>
<defs>
<linearGradient id="paint0_linear_327_147" x1="40" y1="0" x2="0" y2="0" gradientUnits="userSpaceOnUse">
<stop stop-color="#3A3B3C"/>
<stop offset="1" stop-color="#131415"/>
</linearGradient>
</defs>
</svg>
