<svg width="16" height="16" viewBox="0 0 16 16" fill="none" xmlns="http://www.w3.org/2000/svg">
<path d="M4.99989 6H2.33323C2.24482 6 2.16004 6.03512 2.09752 6.09763C2.03501 6.16014 1.99989 6.24493 1.99989 6.33333V14.3333C1.99989 14.4217 2.03501 14.5065 2.09752 14.569C2.16004 14.6315 2.24482 14.6667 2.33323 14.6667H4.99989C5.0883 14.6667 5.17308 14.6315 5.2356 14.569C5.29811 14.5065 5.33323 14.4217 5.33323 14.3333V6.33333C5.33323 6.24493 5.29811 6.16014 5.2356 6.09763C5.17308 6.03512 5.0883 6 4.99989 6ZM4.66656 14H2.66656V6.66667H4.66656V14ZM11.9999 6C11.2766 6 10.5732 6.23867 9.99989 6.67933V6.33333C9.99989 6.24493 9.96478 6.16014 9.90226 6.09763C9.83975 6.03512 9.75497 6 9.66656 6H6.99989C6.91149 6 6.8267 6.03512 6.76419 6.09763C6.70168 6.16014 6.66656 6.24493 6.66656 6.33333V14.3333C6.66656 14.4217 6.70168 14.5065 6.76419 14.569C6.8267 14.6315 6.91149 14.6667 6.99989 14.6667H9.66656C9.75497 14.6667 9.83975 14.6315 9.90226 14.569C9.96478 14.5065 9.99989 14.4217 9.99989 14.3333V10.6667C9.99989 10.4015 10.1053 10.1471 10.2928 9.95956C10.4803 9.77202 10.7347 9.66667 10.9999 9.66667C11.2651 9.66667 11.5195 9.77202 11.707 9.95956C11.8945 10.1471 11.9999 10.4015 11.9999 10.6667V14.3333C11.9999 14.4217 12.035 14.5065 12.0975 14.569C12.16 14.6315 12.2448 14.6667 12.3332 14.6667H14.9999C15.0883 14.6667 15.1731 14.6315 15.2356 14.569C15.2981 14.5065 15.3332 14.4217 15.3332 14.3333V9.33333C15.3322 8.4496 14.9806 7.60237 14.3557 6.97748C13.7309 6.35259 12.8836 6.00106 11.9999 6ZM14.6666 14H12.6666V10.6667C12.6666 10.2246 12.491 9.80072 12.1784 9.48816C11.8658 9.17559 11.4419 9 10.9999 9C10.5579 9 10.1339 9.17559 9.82138 9.48816C9.50882 9.80072 9.33323 10.2246 9.33323 10.6667V14H7.33323V6.66667H9.33323V7.46867C9.33321 7.5377 9.35463 7.60504 9.39453 7.66139C9.43443 7.71773 9.49084 7.76029 9.55597 7.78319C9.6211 7.8061 9.69173 7.80822 9.75812 7.78925C9.8245 7.77029 9.88336 7.73118 9.92656 7.67733C10.2689 7.24338 10.7381 6.92708 11.2688 6.77254C11.7995 6.618 12.3652 6.63292 12.887 6.81523C13.4088 6.99753 13.8607 7.33812 14.1797 7.78952C14.4987 8.24091 14.6689 8.7806 14.6666 9.33333V14ZM3.91189 1.33467C3.83354 1.3296 3.75496 1.32916 3.67656 1.33333C3.42707 1.31636 3.17676 1.35079 2.94112 1.43449C2.70548 1.5182 2.48953 1.64939 2.30666 1.81995C2.12379 1.99051 1.97789 2.1968 1.87799 2.42604C1.77809 2.65529 1.72632 2.9026 1.72589 3.15267C1.72382 3.40012 1.77261 3.64536 1.86923 3.87318C1.96585 4.101 2.10824 4.30654 2.28757 4.47706C2.4669 4.64757 2.67935 4.77943 2.91175 4.86446C3.14414 4.94948 3.39153 4.98586 3.63856 4.97133H3.65723C3.89601 4.98805 4.13576 4.95758 4.36277 4.88165C4.58978 4.80572 4.79961 4.68582 4.98028 4.52879C5.16095 4.37177 5.30892 4.1807 5.41575 3.96649C5.52258 3.75227 5.58617 3.51912 5.60289 3.28033C5.61962 3.04155 5.58914 2.8018 5.51321 2.57479C5.43728 2.34778 5.31738 2.13795 5.16035 1.95728C5.00333 1.77661 4.81226 1.62864 4.59805 1.52181C4.38384 1.41498 4.15068 1.35139 3.91189 1.33467ZM3.88856 4.30667C3.81167 4.31378 3.73456 4.31311 3.65723 4.30467H3.63856C3.47811 4.31673 3.31691 4.2952 3.16525 4.24146C3.01359 4.18772 2.8748 4.10294 2.75775 3.99255C2.64069 3.88215 2.54794 3.74856 2.48542 3.60031C2.4229 3.45205 2.39198 3.29239 2.39463 3.13151C2.39728 2.97063 2.43345 2.81207 2.50083 2.66596C2.5682 2.51984 2.66531 2.38938 2.78594 2.28291C2.90657 2.17643 3.04808 2.09628 3.20143 2.04757C3.35478 1.99886 3.5166 1.98265 3.67656 2C3.98244 1.97189 4.28697 2.06644 4.52314 2.26285C4.75931 2.45926 4.90778 2.74145 4.93589 3.04733C4.96401 3.35322 4.86946 3.65774 4.67304 3.89391C4.47663 4.13008 4.19444 4.27855 3.88856 4.30667Z" fill="#787777"/>
</svg>
