<svg width="16" height="16" viewBox="0 0 16 16" fill="none" xmlns="http://www.w3.org/2000/svg">
<path d="M5.1998 10C5.09372 10 4.99198 9.95786 4.91696 9.88284C4.84195 9.80783 4.7998 9.70609 4.7998 9.6C4.7998 9.49391 4.84195 9.39217 4.91696 9.31716C4.99198 9.24214 5.09372 9.2 5.1998 9.2H10.7998C10.9059 9.2 11.0076 9.24214 11.0826 9.31716C11.1577 9.39217 11.1998 9.49391 11.1998 9.6C11.1998 9.70609 11.1577 9.80783 11.0826 9.88284C11.0076 9.95786 10.9059 10 10.7998 10H5.1998ZM5.1998 12C5.09372 12 4.99198 11.9579 4.91696 11.8828C4.84195 11.8078 4.7998 11.7061 4.7998 11.6C4.7998 11.4939 4.84195 11.3922 4.91696 11.3172C4.99198 11.2421 5.09372 11.2 5.1998 11.2H10.7998C10.9059 11.2 11.0076 11.2421 11.0826 11.3172C11.1577 11.3922 11.1998 11.4939 11.1998 11.6C11.1998 11.7061 11.1577 11.8078 11.0826 11.8828C11.0076 11.9579 10.9059 12 10.7998 12H5.1998Z" fill="#787777"/>
<path fill-rule="evenodd" clip-rule="evenodd" d="M8.9479 0.799999H3.5999C3.28164 0.799999 2.97642 0.926428 2.75137 1.15147C2.52633 1.37651 2.3999 1.68174 2.3999 2V14C2.3999 14.3183 2.52633 14.6235 2.75137 14.8485C2.97642 15.0736 3.28164 15.2 3.5999 15.2H12.3999C12.7182 15.2 13.0234 15.0736 13.2484 14.8485C13.4735 14.6235 13.5999 14.3183 13.5999 14V5.7616C13.5998 5.46118 13.4871 5.17171 13.2839 4.9504L9.8327 1.1888C9.72023 1.0662 9.58349 0.96832 9.43117 0.901387C9.27885 0.834454 9.11428 0.799928 8.9479 0.799999ZM3.1999 2C3.1999 1.89391 3.24205 1.79217 3.31706 1.71716C3.39207 1.64214 3.49382 1.6 3.5999 1.6H8.9479C9.00341 1.59994 9.05832 1.61143 9.10914 1.63374C9.15996 1.65605 9.20558 1.6887 9.2431 1.7296L12.6943 5.4912C12.7621 5.56493 12.7998 5.66142 12.7999 5.7616V14C12.7999 14.1061 12.7578 14.2078 12.6827 14.2828C12.6077 14.3579 12.506 14.4 12.3999 14.4H3.5999C3.49382 14.4 3.39207 14.3579 3.31706 14.2828C3.24205 14.2078 3.1999 14.1061 3.1999 14V2Z" fill="#787777"/>
<path d="M9.19995 1.68V5.44H12.96" stroke="#787777" stroke-width="0.8" stroke-linecap="round" stroke-linejoin="round"/>
<path d="M6.50716 4.9064C6.6214 4.9099 6.73518 4.89042 6.84175 4.84912C6.94833 4.80781 7.04552 4.74553 7.12756 4.66595C7.20961 4.58638 7.27484 4.49114 7.31939 4.38589C7.36393 4.28063 7.38689 4.1675 7.38689 4.0532C7.38689 3.9389 7.36393 3.82577 7.31939 3.72052C7.27484 3.61526 7.20961 3.52002 7.12756 3.44045C7.04552 3.36087 6.94833 3.29859 6.84175 3.25728C6.73518 3.21598 6.6214 3.1965 6.50716 3.2C6.2854 3.20679 6.07499 3.29966 5.92053 3.45892C5.76607 3.61819 5.67969 3.83134 5.67969 4.0532C5.67969 4.27506 5.76607 4.48821 5.92053 4.64748C6.07499 4.80674 6.2854 4.89961 6.50716 4.9064Z" fill="#787777"/>
<path fill-rule="evenodd" clip-rule="evenodd" d="M8.2126 6.7552C8.2126 5.848 7.44861 5.1912 6.5062 5.1912C5.56381 5.1912 4.7998 5.8472 4.7998 6.7552V7.1824C4.80002 7.2578 4.83012 7.33003 4.8835 7.38327C4.93689 7.43651 5.00921 7.4664 5.0846 7.4664H7.9286C8.00386 7.46619 8.07598 7.4362 8.12919 7.38299C8.1824 7.32977 8.21239 7.25766 8.2126 7.1824V6.7552Z" fill="#787777"/>
</svg>
