<svg width="16" height="16" viewBox="0 0 16 16" fill="none" xmlns="http://www.w3.org/2000/svg">
<path d="M11.6676 9.16438L9.66762 8.16438C9.60855 8.135 9.54277 8.12172 9.47693 8.12589C9.41109 8.13006 9.34751 8.15153 9.29262 8.18812L8.31262 8.84125C7.81651 8.58724 7.41288 8.1836 7.15887 7.6875L7.81262 6.70813C7.84921 6.65323 7.87068 6.58966 7.87485 6.52381C7.87902 6.45797 7.86575 6.3922 7.83637 6.33313L6.83637 4.33313C6.80527 4.27055 6.75732 4.21791 6.69791 4.18114C6.63849 4.14436 6.56999 4.12492 6.50012 4.125C5.87023 4.125 5.26614 4.37522 4.82074 4.82062C4.37534 5.26602 4.12512 5.87011 4.12512 6.5C4.12677 7.92503 4.6936 9.29122 5.70125 10.2989C6.7089 11.3065 8.07509 11.8733 9.50012 11.875C10.13 11.875 10.7341 11.6248 11.1795 11.1794C11.6249 10.734 11.8751 10.1299 11.8751 9.5C11.8751 9.4303 11.8557 9.36197 11.8191 9.30269C11.7824 9.2434 11.73 9.19551 11.6676 9.16438ZM9.50012 11.125C8.27395 11.1235 7.09843 10.6358 6.23139 9.76872C5.36436 8.90169 4.87661 7.72617 4.87512 6.5C4.87515 6.10781 5.01703 5.72887 5.27456 5.43308C5.53209 5.13729 5.88791 4.94463 6.27637 4.89063L7.06762 6.47312L6.41824 7.44688C6.38412 7.49823 6.36319 7.55721 6.35731 7.61859C6.35142 7.67996 6.36076 7.74184 6.38449 7.79875C6.72932 8.6186 7.38152 9.2708 8.20137 9.61563C8.25827 9.63936 8.32015 9.6487 8.38153 9.64281C8.44291 9.63692 8.50189 9.61599 8.55324 9.58187L9.52699 8.9325L11.1095 9.72375C11.0555 10.1122 10.8628 10.468 10.567 10.7256C10.2713 10.9831 9.89231 11.125 9.50012 11.125ZM8.00012 1.625C6.89498 1.62477 5.80877 1.91183 4.84805 2.45802C3.88732 3.00421 3.08509 3.79078 2.52005 4.74054C1.955 5.6903 1.64657 6.77063 1.62499 7.87556C1.60342 8.98048 1.86945 10.072 2.39699 11.0431L1.67074 13.2225C1.61933 13.3767 1.61187 13.5421 1.64919 13.7003C1.68652 13.8585 1.76717 14.0031 1.88208 14.118C1.997 14.233 2.14165 14.3136 2.29983 14.3509C2.458 14.3883 2.62345 14.3808 2.77762 14.3294L4.95699 13.6031C5.81011 14.0661 6.75767 14.3281 7.72744 14.3693C8.69721 14.4104 9.66356 14.2296 10.5528 13.8405C11.4421 13.4515 12.2308 12.8645 12.8587 12.1244C13.4867 11.3843 13.9374 10.5105 14.1764 9.56975C14.4154 8.62899 14.4364 7.64609 14.2379 6.69597C14.0393 5.74586 13.6264 4.85363 13.0307 4.08731C12.435 3.321 11.6721 2.70083 10.8003 2.27411C9.92849 1.84739 8.97076 1.62538 8.00012 1.625ZM8.00012 13.625C7.01133 13.6252 6.03994 13.3648 5.18387 12.87C5.12679 12.8372 5.06219 12.8198 4.99637 12.8194C4.95602 12.8196 4.91595 12.8261 4.87762 12.8387L2.54074 13.6175C2.51872 13.6248 2.49508 13.6259 2.47249 13.6206C2.44989 13.6152 2.42923 13.6037 2.41281 13.5873C2.39639 13.5709 2.38487 13.5502 2.37954 13.5276C2.37421 13.505 2.37527 13.4814 2.38262 13.4594L3.16137 11.125C3.17822 11.0746 3.18414 11.0211 3.17876 10.9682C3.17337 10.9153 3.15679 10.8641 3.13012 10.8181C2.50965 9.74631 2.26025 8.49969 2.42061 7.27166C2.58097 6.04363 3.14212 4.90285 4.01701 4.0263C4.8919 3.14975 6.03161 2.58644 7.25933 2.42375C8.48705 2.26106 9.73415 2.50809 10.8071 3.12652C11.8801 3.74495 12.719 4.7002 13.1937 5.84408C13.6684 6.98796 13.7523 8.25652 13.4324 9.45294C13.1125 10.6494 12.4067 11.7068 11.4245 12.4611C10.4423 13.2155 9.23857 13.6246 8.00012 13.625Z" fill="#787777"/>
</svg>
